<svg width="200" height="200" fill="none" xmlns="http://www.w3.org/2000/svg"><path fill-rule="evenodd" clip-rule="evenodd" d="M100 0H0v200h100L0 100 100 0zm65.533 24.464C165.53 24.5 90 100 90 100s75.533 75.5 75.53 75.539C186.647 157.204 200 130.162 200 100c0-30.16-13.352-57.202-34.467-75.536z" fill="#fff"/><path fill-rule="evenodd" clip-rule="evenodd" d="M0 100 100 0c25.068 0 47.983 9.224 65.533 24.464C165.53 24.5 90 100 90 100s75.533 75.5 75.53 75.539C147.979 190.777 125.067 200 100 200L0 100z" fill="#fff" fill-opacity=".2"/></svg>